<?xml version="1.0" encoding="UTF-8" standalone="no"?>
<svg
   xmlns:dc="http://purl.org/dc/elements/1.1/"
   xmlns:cc="http://creativecommons.org/ns#"
   xmlns:rdf="http://www.w3.org/1999/02/22-rdf-syntax-ns#"
   xmlns:svg="http://www.w3.org/2000/svg"
   xmlns="http://www.w3.org/2000/svg"
   xmlns:xlink="http://www.w3.org/1999/xlink"
   xmlns:sodipodi="http://sodipodi.sourceforge.net/DTD/sodipodi-0.dtd"
   xmlns:inkscape="http://www.inkscape.org/namespaces/inkscape"
   id="Layer_1"
   data-name="Layer 1"
   viewBox="0 0 28.442192 28.442192"
   version="1.1"
   sodipodi:docname="wallet.svg"
   width="28.442192"
   height="28.442192"
   inkscape:version="1.0.2-2 (e86c870879, 2021-01-15)">
  <metadata
     id="metadata10">
    <rdf:RDF>
      <cc:Work
         rdf:about="">
        <dc:format>image/svg+xml</dc:format>
        <dc:type
           rdf:resource="http://purl.org/dc/dcmitype/StillImage" />
        <dc:title>Wallet</dc:title>
      </cc:Work>
    </rdf:RDF>
  </metadata>
  <defs
     id="defs8">
    <linearGradient
       inkscape:collect="always"
       id="linearGradient841">
      <stop
         style="stop-color:#008100;stop-opacity:1"
         offset="0"
         id="stop837" />
      <stop
         style="stop-color:#333333;stop-opacity:1"
         offset="1"
         id="stop839" />
    </linearGradient>
    <linearGradient
       inkscape:collect="always"
       xlink:href="#linearGradient841"
       id="linearGradient843"
       x1="13.035088"
       y1="-3.1808109"
       x2="13.035088"
       y2="29.812305"
       gradientUnits="userSpaceOnUse"
       gradientTransform="translate(2.2462784,0.25047537)" />
  </defs>
  <sodipodi:namedview
     pagecolor="#ffffff"
     bordercolor="#666666"
     borderopacity="1"
     objecttolerance="10"
     gridtolerance="10"
     guidetolerance="10"
     inkscape:pageopacity="0"
     inkscape:pageshadow="2"
     inkscape:window-width="1920"
     inkscape:window-height="1001"
     id="namedview6"
     showgrid="false"
     fit-margin-top="0"
     fit-margin-left="0"
     fit-margin-right="0"
     fit-margin-bottom="0"
     inkscape:zoom="16.033647"
     inkscape:cx="10.327118"
     inkscape:cy="11.425753"
     inkscape:window-x="-9"
     inkscape:window-y="-9"
     inkscape:window-maximized="1"
     inkscape:current-layer="Layer_1" />
  <title
     id="title2">Wallet</title>
  <rect
     style="fill:url(#linearGradient843);fill-opacity:1;stroke:#000000;stroke-width:0.002"
     id="rect835"
     width="28.440191"
     height="28.440191"
     x="0.001"
     y="0.001"
     ry="2.0581717" />
  <path
     id="Wallet"
     d="M 24.372409,13.382465 V 10.028016 A 1.1034373,1.1034373 0 0 0 23.268972,8.9245787 H 22.606909 V 6.4970165 A 1.1034373,1.1034373 0 0 0 21.503472,5.3935792 H 5.3932869 A 2.2068747,2.2068747 0 0 0 3.1864122,7.6004539 v 0 13.2412481 a 2.2068747,2.2068747 0 0 0 2.2068747,2.206874 H 23.268972 a 1.0946098,1.0946098 0 0 0 1.103437,-1.103437 v -3.310312 a 1.0857823,1.0857823 0 0 0 0.88275,-1.0593 v -3.089624 a 1.0857823,1.0857823 0 0 0 -0.88275,-1.103438 z M 5.8346618,8.0418288 A 0.88274987,0.88274987 0 0 1 6.7174117,7.1590789 H 21.724159 V 8.9245787 H 6.7174117 A 0.88274987,0.88274987 0 0 1 5.8346618,8.0418288 Z M 24.372409,17.53139 a 0.22068747,0.22068747 0 0 1 -0.220688,0.220687 h -4.095959 a 1.8361197,1.8361197 0 0 1 -1.862602,-1.465365 1.7654997,1.7654997 0 0 1 1.7655,-2.065634 h 4.193061 a 0.22068747,0.22068747 0 0 1 0.220688,0.220687 z M 19.95866,15.103828 a 0.88274987,0.88274987 0 1 0 0.882749,0.882749 0.88274987,0.88274987 0 0 0 -0.882749,-0.882749 z"
     fill="#0e1d25"
     style="fill:#ffffff;stroke-width:0.88275" />
</svg>
